<svg xmlns="http://www.w3.org/2000/svg" viewBox="0 0 64 64" role="img" aria-label="C sharp">
  <path fill="#68217A" d="M32 4 56 18v28L32 60 8 46V18z"/>
  <path fill="#953DAC" d="M32 9 51.7 20.4v23.2L32 55 12.3 43.6V20.4z"/>
  <path fill="#FFF" d="M30.2 19.4c5.5 0 9.1 3 10.8 6.7l-5.2 2.5c-1-2-2.8-3.5-5.6-3.5-4.3 0-7.4 3.4-7.4 7.9s3.1 7.9 7.4 7.9c2.8 0 4.6-1.5 5.6-3.5l5.2 2.5c-1.7 3.8-5.3 6.7-10.8 6.7-7.8 0-13.7-5.7-13.7-13.6s5.9-13.6 13.7-13.6z"/>
  <path fill="#FFF" d="M43.2 27.5h2.4l-.5 3h2.3l.5-3h2.4l-.5 3h2.6v2.3h-3l-.5 3h2.7v2.3h-3.1l-.6 3.4h-2.4l.6-3.4h-2.3l-.6 3.4h-2.4l.6-3.4h-2.5v-2.3h2.9l.5-3h-2.6v-2.3h3zm2 5.3-.5 3H47l.5-3z"/>
</svg>
